<?xml version="1.0" standalone="no"?>
<!DOCTYPE svg PUBLIC "-//W3C//DTD SVG 20010904//EN"
 "http://www.w3.org/TR/2001/REC-SVG-20010904/DTD/svg10.dtd">
<svg version="1.0" xmlns="http://www.w3.org/2000/svg"
 width="700.000000pt" height="700.000000pt" viewBox="0 0 700.000000 700.000000"
 preserveAspectRatio="xMidYMid meet">
<metadata>
Created by potrace 1.14, written by Peter Selinger 2001-2017
</metadata>
<g transform="translate(0.000000,700.000000) scale(0.100000,-0.100000)"
fill="#000000" stroke="none">
<path d="M3295 6403 c-744 -48 -1316 -232 -1794 -574 -370 -265 -584 -580
-645 -949 -13 -82 -15 -293 -17 -1575 -2 -1136 1 -1495 10 -1543 44 -229 154
-429 344 -628 254 -266 565 -449 1025 -604 460 -155 873 -222 1362 -222 593 0
1124 105 1579 311 583 264 953 642 1086 1109 59 208 57 145 55 1617 -1 1442
-1 1440 -51 1630 -117 448 -405 760 -964 1045 -420 214 -880 340 -1384 380
-123 9 -483 11 -606 3z m520 -384 c763 -57 1284 -239 1680 -587 378 -332 502
-732 351 -1133 -54 -145 -117 -239 -246 -370 -358 -362 -854 -563 -1650 -670
-199 -26 -570 -36 -747 -20 -429 40 -862 165 -1253 361 -324 162 -542 379
-641 635 -52 133 -69 243 -72 448 l-2 182 46 95 c153 319 380 531 789 739 378
192 742 293 1170 324 110 8 447 6 575 -4z"/>
<path d="M3049 5760 c-425 -67 -819 -339 -934 -644 -13 -35 -30 -102 -36 -149
-31 -209 62 -465 227 -634 181 -184 490 -326 874 -403 487 -98 933 -40 1385
179 232 112 366 210 470 343 140 178 197 350 146 435 -23 37 -95 82 -145 90
-62 10 -91 -12 -199 -146 -188 -233 -314 -342 -514 -444 -242 -123 -491 -176
-779 -163 -432 19 -751 139 -967 365 -98 103 -132 172 -132 266 1 124 54 190
299 374 l139 103 116 24 c427 88 765 -13 902 -269 37 -70 33 -85 -39 -140 -94
-70 -164 -95 -372 -132 -250 -45 -332 -73 -350 -121 -14 -35 -12 -138 2 -169
19 -42 62 -58 173 -63 133 -6 408 14 522 37 112 23 174 56 247 129 103 103
166 261 166 416 0 177 -54 301 -190 436 -131 130 -293 210 -534 262 -104 22
-384 33 -477 18z"/>
</g>
</svg>
