<svg version="1.1" id="Layer_1" xmlns="http://www.w3.org/2000/svg" xmlns:xlink="http://www.w3.org/1999/xlink" x="0px" y="0px"
	 width="100%" viewBox="0 0 200 200" enable-background="new 0 0 200 200" xml:space="preserve">
<path fill="#000000" opacity="0.000000" stroke="none"
	d="
M1.000000,84.000000
	C1.000000,56.000008 1.000000,28.500013 1.000000,1.000015
	C67.666649,1.000010 134.333298,1.000010 200.999954,1.000005
	C200.999969,67.666626 200.999969,134.333252 200.999985,200.999908
	C134.333389,200.999939 67.666779,200.999939 1.000081,200.999969
	C1.000000,162.166672 1.000000,123.333336 1.000000,84.000000
M179.999756,112.500000
	C179.999878,98.504898 179.975647,84.509743 180.006470,70.514709
	C180.042267,54.265343 173.247330,41.661823 159.583969,32.972729
	C136.831100,18.503242 111.833794,14.840115 85.457764,17.967815
	C69.071861,19.910877 53.814861,25.042246 40.747303,35.145695
	C30.588160,43.000446 24.041239,53.392185 24.014656,66.847733
	C23.963966,92.505379 24.162313,118.164757 23.914513,143.820114
	C23.824574,153.131836 27.577448,160.518005 33.575939,167.023102
	C41.854637,176.000961 52.545227,181.182938 63.880718,184.965988
	C81.845268,190.961395 100.253685,192.559753 119.092041,190.067612
	C132.754044,188.260223 145.592865,184.262497 157.238815,176.925415
	C172.589920,167.254044 180.874664,153.621948 180.051376,134.990250
	C179.735428,127.840034 179.999802,120.664177 179.999756,112.500000
z"/>
<path fill="#2e3c4f" opacity="1.000000" stroke="none" stroke-width="6"
	d="
M179.999756,113.000000
	C179.999802,120.664177 179.735428,127.840034 180.051376,134.990250
	C180.874664,153.621948 172.589920,167.254044 157.238815,176.925415
	C145.592865,184.262497 132.754044,188.260223 119.092041,190.067612
	C100.253685,192.559753 81.845268,190.961395 63.880718,184.965988
	C52.545227,181.182938 41.854637,176.000961 33.575939,167.023102
	C27.577448,160.518005 23.824574,153.131836 23.914513,143.820114
	C24.162313,118.164757 23.963966,92.505379 24.014656,66.847733
	C24.041239,53.392185 30.588160,43.000446 40.747303,35.145695
	C53.814861,25.042246 69.071861,19.910877 85.457764,17.967815
	C111.833794,14.840115 136.831100,18.503242 159.583969,32.972729
	C173.247330,41.661823 180.042267,54.265343 180.006470,70.514709
	C179.975647,84.509743 179.999878,98.504898 179.999756,113.000000
M35.025524,62.089760
	C35.286114,66.173859 35.061428,70.360542 35.898952,74.322685
	C38.339821,85.869827 46.689602,92.913025 56.512112,97.640800
	C73.637245,105.883469 91.692726,109.521759 110.980705,107.161987
	C127.506432,105.140152 143.169601,101.756660 156.596436,91.097099
	C171.305435,79.419640 173.042557,61.493095 160.651199,48.275368
	C147.658020,34.415703 130.201309,29.911444 112.268616,28.222355
	C95.573601,26.649839 78.777832,27.928873 63.176476,35.092411
	C51.058651,40.656448 40.046669,47.720478 35.025524,62.089760
z"/>
<path fill="#ffffff" opacity="1.000000" stroke="none"
	d="
M35.136742,61.669521
	C40.046669,47.720478 51.058651,40.656448 63.176476,35.092411
	C78.777832,27.928873 95.573601,26.649839 112.268616,28.222355
	C130.201309,29.911444 147.658020,34.415703 160.651199,48.275368
	C173.042557,61.493095 171.305435,79.419640 156.596436,91.097099
	C143.169601,101.756660 127.506432,105.140152 110.980705,107.161987
	C91.692726,109.521759 73.637245,105.883469 56.512112,97.640800
	C46.689602,92.913025 38.339821,85.869827 35.898952,74.322685
	C35.061428,70.360542 35.286114,66.173859 35.136742,61.669521
M82.874695,48.035042
	C96.933548,44.134865 108.343254,47.468304 111.868988,56.562607
	C107.290947,61.905148 100.601303,61.439453 94.577606,62.887886
	C92.634109,63.355213 89.577789,64.235710 89.272903,65.477676
	C88.527344,68.514763 88.127869,72.818764 93.038559,72.928635
	C98.926826,73.060356 104.978844,73.010239 110.689728,71.782181
	C115.686569,70.707680 119.178535,66.749275 120.980675,61.732819
	C124.750290,51.239700 118.187698,41.122231 106.894737,37.162251
	C94.477242,32.807949 81.917717,33.935101 70.843452,41.173325
	C60.419659,47.986397 56.032238,57.561459 60.420650,68.761566
	C63.565006,76.786598 70.701332,81.571838 78.271286,84.536880
	C97.472008,92.057518 116.521172,91.274422 134.730301,80.994041
	C140.812195,77.560387 145.718658,72.822372 148.346085,66.146492
	C149.770126,62.528233 149.540833,59.473740 145.329163,57.700714
	C141.627136,56.142231 140.323471,58.523079 138.399216,60.955120
	C135.546570,64.560555 132.491287,68.244347 128.809509,70.910530
	C117.586914,79.037437 104.760376,80.318695 91.570709,77.700111
	C84.373032,76.271126 77.756325,73.170944 72.771797,67.307518
	C69.638245,63.621437 69.119904,59.631981 72.507256,56.123283
	C75.350639,53.178028 78.900597,50.914902 82.874695,48.035042
z"/>
<path fill="#f4d35d" opacity="1.000000" stroke="#fff"
	d="
M82.506210,48.192406
	C78.900597,50.914902 75.350639,53.178028 72.507256,56.123283
	C69.119904,59.631981 69.638245,63.621437 72.771797,67.307518
	C77.756325,73.170944 84.373032,76.271126 91.570709,77.700111
	C104.760376,80.318695 117.586914,79.037437 128.809509,70.910530
	C132.491287,68.244347 135.546570,64.560555 138.399216,60.955120
	C140.323471,58.523079 141.627136,56.142231 145.329163,57.700714
	C149.540833,59.473740 149.770126,62.528233 148.346085,66.146492
	C145.718658,72.822372 140.812195,77.560387 134.730301,80.994041
	C116.521172,91.274422 97.472008,92.057518 78.271286,84.536880
	C70.701332,81.571838 63.565006,76.786598 60.420650,68.761566
	C56.032238,57.561459 60.419659,47.986397 70.843452,41.173325
	C81.917717,33.935101 94.477242,32.807949 106.894737,37.162251
	C118.187698,41.122231 124.750290,51.239700 120.980675,61.732819
	C119.178535,66.749275 115.686569,70.707680 110.689728,71.782181
	C104.978844,73.010239 98.926826,73.060356 93.038559,72.928635
	C88.127869,72.818764 88.527344,68.514763 89.272903,65.477676
	C89.577789,64.235710 92.634109,63.355213 94.577606,62.887886
	C100.601303,61.439453 107.290947,61.905148 111.868988,56.562607
	C108.343254,47.468304 96.933548,44.134865 82.506210,48.192406
z"/>
</svg>
